<!DOCTYPE svg PUBLIC "-//W3C//DTD SVG 1.1//EN" "http://www.w3.org/Graphics/SVG/1.1/DTD/svg11.dtd">
<!-- Uploaded to: SVG Repo, www.svgrepo.com, Transformed by: SVG Repo Mixer Tools -->
<svg xmlns="http://www.w3.org/2000/svg" aria-label="Twitter" role="img" viewBox="0 0 512 512" width="800px" height="800px" fill="#000000">
<g id="SVGRepo_bgCarrier" stroke-width="0"/>
<g id="SVGRepo_tracerCarrier" stroke-linecap="round" stroke-linejoin="round"/>
<g id="SVGRepo_iconCarrier">
<rect width="512" height="512" rx="15%" fill="#333333"/>
<path fill="#F9BA48" d="M437 152a72 72 0 01-40 12a72 72 0 0032-40a72 72 0 01-45 17a72 72 0 00-122 65a200 200 0 01-145-74a72 72 0 0022 94a72 72 0 01-32-7a72 72 0 0056 69a72 72 0 01-32 1a72 72 0 0067 50a200 200 0 01-105 29a200 200 0 00309-179a200 200 0 0035-37"/>
</g>
</svg>